# xmcd
#
# Track frame offsets:
#	150
#	16896
#	31440
#	51817
#	66592
#	84411
#	104589
#	125090
#	139227
#	155106
#	171821
#	187302
#	206071
#	219559
#	233286
#	249607
#	266432
#	282952
#	300779
#	316748
#
# Disc length: 4460 seconds
#
# Revision: 0
# Processed by: cddbd v1.5.2PL0 Copyright (c) Steve Scherf et al.
# Submitted via: EasyCDDAExtractor 12.0.7.1
#
DISCID=24116a14
DTITLE=Various Artist - Новая игрушка #12
DYEAR=2003
DGENRE=Pop
TTITLE0=Краски - Мамочка
TTITLE1=Гога - Боби-Боба
TTITLE2=Пропаганда - Так и быть (кто-кто)
TTITLE3=Стрелки - Югорская долина
TTITLE4=Света - Все-таки можно
TTITLE5=Акула - Ты любишь маму (feat. DJ Корж)
TTITLE6=Непара - Они знакомы давно
TTITLE7=Планка - Палец пистолет
TTITLE8=Фабрика - Про любовь
TTITLE9=Кай Метов - Вспоминай меня
TTITLE10=Выше радуги - Шо мне делать
TTITLE11=Павел Артемьев и Ирина Тонева - Понимаешь
TTITLE12=Валдай - Не грусти, похрусти
TTITLE13=Мишель - Почему
TTITLE14=Revoльvers - Доброе утро, малыш
TTITLE15=Поющие вместе - Маленькое чудо
TTITLE16=Премьер-министр - Плачет дождик
TTITLE17=Другие правила - Лети, беги
TTITLE18=Динамит - Которая была с тобой
TTITLE19=Рома Жуков - Я люблю вас
EXTD=
EXTT0=
EXTT1=
EXTT2=
EXTT3=
EXTT4=
EXTT5=
EXTT6=
EXTT7=
EXTT8=
EXTT9=
EXTT10=
EXTT11=
EXTT12=
EXTT13=
EXTT14=
EXTT15=
EXTT16=
EXTT17=
EXTT18=
EXTT19=
PLAYORDER=
